<mxfile host="app.diagrams.net" modified="2023-12-14T13:54:20.316Z" agent="Mozilla/5.0 (Macintosh; Intel Mac OS X 10_15_7) AppleWebKit/537.36 (KHTML, like Gecko) Chrome/120.0.0.0 Safari/537.36" etag="VwfTlPiawLarkNeSafv-" version="22.1.8" type="github">
  <diagram name="第 1 页" id="_yeTReKi2tKOsesYiWH2">
    <mxGraphModel dx="1026" dy="651" grid="1" gridSize="10" guides="1" tooltips="1" connect="1" arrows="1" fold="1" page="1" pageScale="1" pageWidth="827" pageHeight="1169" math="0" shadow="0">
      <root>
        <mxCell id="0" />
        <mxCell id="1" parent="0" />
        <mxCell id="SlN1y37VNXY5p0-sogcM-19" value="" style="rounded=0;whiteSpace=wrap;html=1;" vertex="1" parent="1">
          <mxGeometry x="152" y="140" width="250" height="90" as="geometry" />
        </mxCell>
        <mxCell id="SlN1y37VNXY5p0-sogcM-5" value="" style="rounded=0;whiteSpace=wrap;html=1;" vertex="1" parent="1">
          <mxGeometry x="347" y="340" width="130" height="180" as="geometry" />
        </mxCell>
        <mxCell id="SlN1y37VNXY5p0-sogcM-31" style="edgeStyle=orthogonalEdgeStyle;rounded=0;orthogonalLoop=1;jettySize=auto;html=1;entryX=0.5;entryY=1;entryDx=0;entryDy=0;" edge="1" parent="1" source="SlN1y37VNXY5p0-sogcM-1" target="SlN1y37VNXY5p0-sogcM-19">
          <mxGeometry relative="1" as="geometry" />
        </mxCell>
        <mxCell id="SlN1y37VNXY5p0-sogcM-32" style="edgeStyle=orthogonalEdgeStyle;rounded=0;orthogonalLoop=1;jettySize=auto;html=1;exitX=0.5;exitY=0;exitDx=0;exitDy=0;entryX=0.5;entryY=1;entryDx=0;entryDy=0;" edge="1" parent="1" source="SlN1y37VNXY5p0-sogcM-1" target="SlN1y37VNXY5p0-sogcM-21">
          <mxGeometry relative="1" as="geometry" />
        </mxCell>
        <mxCell id="SlN1y37VNXY5p0-sogcM-1" value="GPU 0" style="rounded=1;whiteSpace=wrap;html=1;fillColor=#f8cecc;strokeColor=#b85450;" vertex="1" parent="1">
          <mxGeometry x="357" y="350" width="110" height="30" as="geometry" />
        </mxCell>
        <mxCell id="SlN1y37VNXY5p0-sogcM-2" value="GPU 1" style="rounded=1;whiteSpace=wrap;html=1;fillColor=#dae8fc;strokeColor=#6c8ebf;" vertex="1" parent="1">
          <mxGeometry x="357" y="390" width="110" height="30" as="geometry" />
        </mxCell>
        <mxCell id="SlN1y37VNXY5p0-sogcM-3" value="GPU 7" style="rounded=1;whiteSpace=wrap;html=1;fillColor=#dae8fc;strokeColor=#6c8ebf;" vertex="1" parent="1">
          <mxGeometry x="357" y="480" width="110" height="30" as="geometry" />
        </mxCell>
        <mxCell id="SlN1y37VNXY5p0-sogcM-4" value="..." style="text;html=1;strokeColor=none;fillColor=none;align=center;verticalAlign=middle;whiteSpace=wrap;rounded=0;" vertex="1" parent="1">
          <mxGeometry x="377" y="440" width="60" height="30" as="geometry" />
        </mxCell>
        <mxCell id="SlN1y37VNXY5p0-sogcM-6" value="" style="rounded=0;whiteSpace=wrap;html=1;" vertex="1" parent="1">
          <mxGeometry x="547" y="340" width="130" height="180" as="geometry" />
        </mxCell>
        <mxCell id="SlN1y37VNXY5p0-sogcM-7" value="GPU 0" style="rounded=1;whiteSpace=wrap;html=1;fillColor=#dae8fc;strokeColor=#6c8ebf;" vertex="1" parent="1">
          <mxGeometry x="557" y="350" width="110" height="30" as="geometry" />
        </mxCell>
        <mxCell id="SlN1y37VNXY5p0-sogcM-8" value="GPU 1" style="rounded=1;whiteSpace=wrap;html=1;fillColor=#dae8fc;strokeColor=#6c8ebf;" vertex="1" parent="1">
          <mxGeometry x="557" y="390" width="110" height="30" as="geometry" />
        </mxCell>
        <mxCell id="SlN1y37VNXY5p0-sogcM-9" value="GPU 7" style="rounded=1;whiteSpace=wrap;html=1;fillColor=#dae8fc;strokeColor=#6c8ebf;" vertex="1" parent="1">
          <mxGeometry x="557" y="480" width="110" height="30" as="geometry" />
        </mxCell>
        <mxCell id="SlN1y37VNXY5p0-sogcM-10" value="..." style="text;html=1;strokeColor=none;fillColor=none;align=center;verticalAlign=middle;whiteSpace=wrap;rounded=0;" vertex="1" parent="1">
          <mxGeometry x="577" y="440" width="60" height="30" as="geometry" />
        </mxCell>
        <mxCell id="SlN1y37VNXY5p0-sogcM-11" value="" style="shape=doubleArrow;whiteSpace=wrap;html=1;arrowWidth=0.375;arrowSize=0.3375;" vertex="1" parent="1">
          <mxGeometry x="487" y="415" width="50" height="30" as="geometry" />
        </mxCell>
        <mxCell id="SlN1y37VNXY5p0-sogcM-12" value="ZeRO-3" style="text;html=1;strokeColor=none;fillColor=none;align=center;verticalAlign=middle;whiteSpace=wrap;rounded=0;" vertex="1" parent="1">
          <mxGeometry x="482" y="385" width="60" height="30" as="geometry" />
        </mxCell>
        <mxCell id="SlN1y37VNXY5p0-sogcM-13" value="GPU 0" style="rounded=1;whiteSpace=wrap;html=1;fillColor=#dae8fc;strokeColor=#6c8ebf;" vertex="1" parent="1">
          <mxGeometry x="167" y="150" width="110" height="30" as="geometry" />
        </mxCell>
        <mxCell id="SlN1y37VNXY5p0-sogcM-14" value="GPU 2" style="rounded=1;whiteSpace=wrap;html=1;fillColor=#dae8fc;strokeColor=#6c8ebf;" vertex="1" parent="1">
          <mxGeometry x="167" y="190" width="110" height="30" as="geometry" />
        </mxCell>
        <mxCell id="SlN1y37VNXY5p0-sogcM-15" value="GPU 1" style="rounded=1;whiteSpace=wrap;html=1;fillColor=#dae8fc;strokeColor=#6c8ebf;" vertex="1" parent="1">
          <mxGeometry x="282" y="150" width="110" height="30" as="geometry" />
        </mxCell>
        <mxCell id="SlN1y37VNXY5p0-sogcM-16" value="GPU 3" style="rounded=1;whiteSpace=wrap;html=1;fillColor=#dae8fc;strokeColor=#6c8ebf;" vertex="1" parent="1">
          <mxGeometry x="282" y="190" width="110" height="30" as="geometry" />
        </mxCell>
        <mxCell id="SlN1y37VNXY5p0-sogcM-21" value="" style="rounded=0;whiteSpace=wrap;html=1;" vertex="1" parent="1">
          <mxGeometry x="426" y="140" width="250" height="90" as="geometry" />
        </mxCell>
        <mxCell id="SlN1y37VNXY5p0-sogcM-22" value="GPU 0" style="rounded=1;whiteSpace=wrap;html=1;fillColor=#dae8fc;strokeColor=#6c8ebf;" vertex="1" parent="1">
          <mxGeometry x="441" y="150" width="110" height="30" as="geometry" />
        </mxCell>
        <mxCell id="SlN1y37VNXY5p0-sogcM-23" value="GPU 2" style="rounded=1;whiteSpace=wrap;html=1;fillColor=#dae8fc;strokeColor=#6c8ebf;" vertex="1" parent="1">
          <mxGeometry x="441" y="190" width="110" height="30" as="geometry" />
        </mxCell>
        <mxCell id="SlN1y37VNXY5p0-sogcM-24" value="GPU 1" style="rounded=1;whiteSpace=wrap;html=1;fillColor=#dae8fc;strokeColor=#6c8ebf;" vertex="1" parent="1">
          <mxGeometry x="556" y="150" width="110" height="30" as="geometry" />
        </mxCell>
        <mxCell id="SlN1y37VNXY5p0-sogcM-25" value="GPU 3" style="rounded=1;whiteSpace=wrap;html=1;fillColor=#dae8fc;strokeColor=#6c8ebf;" vertex="1" parent="1">
          <mxGeometry x="556" y="190" width="110" height="30" as="geometry" />
        </mxCell>
        <mxCell id="SlN1y37VNXY5p0-sogcM-26" value="&lt;font style=&quot;font-size: 16px;&quot;&gt;Actor Model&lt;/font&gt;" style="text;html=1;strokeColor=none;fillColor=none;align=center;verticalAlign=middle;whiteSpace=wrap;rounded=0;" vertex="1" parent="1">
          <mxGeometry x="463" y="560" width="98" height="30" as="geometry" />
        </mxCell>
        <mxCell id="SlN1y37VNXY5p0-sogcM-27" value="" style="shape=curlyBracket;whiteSpace=wrap;html=1;rounded=1;flipH=1;labelPosition=right;verticalLabelPosition=middle;align=left;verticalAlign=middle;rotation=90;" vertex="1" parent="1">
          <mxGeometry x="502" y="445" width="20" height="200" as="geometry" />
        </mxCell>
        <mxCell id="SlN1y37VNXY5p0-sogcM-29" value="vLLM engine-0" style="text;html=1;strokeColor=none;fillColor=none;align=center;verticalAlign=middle;whiteSpace=wrap;rounded=0;" vertex="1" parent="1">
          <mxGeometry x="229" y="110" width="90" height="30" as="geometry" />
        </mxCell>
        <mxCell id="SlN1y37VNXY5p0-sogcM-30" value="vLLM engine-1" style="text;html=1;strokeColor=none;fillColor=none;align=center;verticalAlign=middle;whiteSpace=wrap;rounded=0;" vertex="1" parent="1">
          <mxGeometry x="506" y="110" width="90" height="30" as="geometry" />
        </mxCell>
      </root>
    </mxGraphModel>
  </diagram>
</mxfile>
